<svg width="132" height="153" viewBox="0 0 132 153" fill="none" xmlns="http://www.w3.org/2000/svg">
<g id="Group">
<path id="Vector" d="M9.86475 88.4973L20.6247 82.3107L20.6249 82.3116C22.5866 81.2722 25.1063 81.42 27.8557 83.0074C34.1108 86.6187 39.1815 96.3073 39.1815 104.647C39.1815 109.232 37.6467 112.451 35.2272 113.824L35.229 113.827L24.8981 119.774L9.86475 88.4973Z" fill="url(#paint0_linear_3_425)"/>
<path id="Vector_2" d="M65.7275 120.75L76.4874 114.563L76.4877 114.564C78.4494 113.524 80.9691 113.673 83.7182 115.26C89.9732 118.871 95.044 128.56 95.044 136.9C95.044 141.485 93.5092 144.703 91.0897 146.076L91.0915 146.08L80.7606 152.027L65.7275 120.75Z" fill="url(#paint1_linear_3_425)"/>
<g id="Group_2">
<path id="Vector_3" d="M0.543701 75.1191V23.5082L83.3803 27.0602V78.6708C83.3803 79.8533 82.7954 81.0361 81.6248 81.7117L48.8099 100.657C46.4761 102.005 43.6006 102.005 41.2668 100.657L2.29919 78.16C1.12857 77.4841 0.543404 76.3016 0.543701 75.1191Z" fill="url(#paint2_linear_3_425)"/>
<path id="Vector_4" d="M81.6245 24.02L42.6569 1.52209C40.3231 0.174764 37.4476 0.174764 35.1138 1.52209L2.29919 20.4677C-0.041461 21.8192 -0.041461 25.1975 2.29919 26.549L41.2668 49.047C43.6006 50.3943 46.4761 50.3943 48.8099 49.047L81.6248 30.1013C83.9655 28.7498 83.9655 25.3715 81.6245 24.02Z" fill="url(#paint3_linear_3_425)"/>
<path id="Vector_5" d="M68.9896 16.7253L27.1367 40.8889L16.0347 34.4792L57.8876 10.3153L68.9896 16.7253Z" fill="#DEA861"/>
<path id="Vector_6" d="M62.3542 12.8909L20.5012 37.0545L22.6759 38.3102L64.5288 14.1463L62.3542 12.8909Z" fill="#CC8241"/>
<path id="Vector_7" d="M27.1367 40.8887V50.0573L16.0347 43.6476V34.479L27.1367 40.8887Z" fill="#BA5C25"/>
</g>
<path id="Vector_8" d="M127.083 91.1274L113.925 83.5311L108.268 59.8155C107.317 55.8297 104.769 52.411 101.22 50.3625L84.1662 40.5042C83.1446 39.914 81.9781 40.0863 81.1663 40.7262L51.3554 57.9374L45.3777 61.3886L93.8932 147.52L129.726 126.84V95.7055C129.726 93.8171 128.718 92.072 127.083 91.1274Z" fill="url(#paint4_linear_3_425)"/>
<path id="Vector_9" d="M98.0123 123.07L103.01 120.185C103.308 120.013 103.68 120.227 103.68 120.572V124.959C103.68 125.554 103.363 126.103 102.848 126.401L97.8502 129.286C97.5524 129.458 97.1799 129.243 97.1799 128.899V124.512C97.1802 123.917 97.4974 123.367 98.0123 123.07Z" fill="#E9E5F6"/>
<path id="Vector_10" d="M122.607 108.856L127.604 105.971C127.902 105.799 128.275 106.014 128.275 106.358V110.745C128.275 111.34 127.957 111.889 127.442 112.187L122.444 115.072C122.147 115.244 121.774 115.029 121.774 114.686V110.298C121.774 109.703 122.091 109.154 122.607 108.856Z" fill="#E9E5F6"/>
<path id="Vector_11" d="M78.0902 104.209L72.4382 80.5135C71.4874 76.5278 68.9385 73.109 65.39 71.0605L48.3361 61.2023C46.5512 60.1718 44.32 61.4599 44.32 63.5209V96.8517C44.32 99.1995 41.7759 100.665 39.7449 99.4865L3.0963 78.222C1.93787 77.5529 0.48999 78.3892 0.48999 79.7267V89.4909C0.48999 91.9357 1.79418 94.1945 3.91142 95.4169L76.7033 137.574L93.8934 147.52V116.385C93.8934 114.496 92.8858 112.751 91.2502 111.807L78.0902 104.209Z" fill="#FFC538"/>
<path id="Vector_12" d="M107.171 62.4397L76.606 80.0868L80.6155 98.0337L111.181 80.3869L107.171 62.4397Z" fill="url(#paint5_linear_3_425)"/>
<path id="Vector_13" d="M61.947 129.827C61.947 121.487 67.0177 117.654 73.2728 121.265C79.5278 124.876 84.5985 134.565 84.5985 142.905C84.5985 151.245 79.5278 155.078 73.2728 151.467C67.0174 147.856 61.947 138.167 61.947 129.827Z" fill="url(#paint6_linear_3_425)"/>
<path id="Vector_14" d="M66.2212 132.295C66.2212 127.102 69.3782 124.716 73.2726 126.964C77.167 129.213 80.324 135.245 80.324 140.438C80.324 145.63 77.167 148.017 73.2726 145.768C69.3782 143.52 66.2212 137.488 66.2212 132.295Z" fill="#E9E5F6"/>
<path id="Vector_15" d="M75.4829 141.381C77.0682 140.705 77.3855 137.886 76.1915 135.084C74.9974 132.282 72.7444 130.558 71.159 131.233C69.5737 131.908 69.2565 134.728 70.4505 137.53C71.6445 140.332 73.8976 142.056 75.4829 141.381Z" fill="#7662BD"/>
<path id="Vector_16" d="M6.08398 97.5749C6.08398 89.2348 11.1547 85.4017 17.4097 89.0129C23.6647 92.6241 28.7354 102.313 28.7354 110.653C28.7354 118.993 23.6647 122.826 17.4097 119.215C11.1547 115.603 6.08398 105.915 6.08398 97.5749Z" fill="url(#paint7_linear_3_425)"/>
<path id="Vector_17" d="M21.695 114.045C24.8069 112.719 25.4296 107.185 23.086 101.685C20.7423 96.1841 16.3198 92.8001 13.208 94.126C10.0961 95.4519 9.47338 100.986 11.817 106.486C14.1607 111.986 18.5832 115.371 21.695 114.045Z" fill="#E9E5F6"/>
<path id="Vector_18" d="M19.6135 109.159C21.1989 108.484 21.5161 105.665 20.3221 102.862C19.1281 100.06 16.875 98.3359 15.2897 99.0114C13.7043 99.6869 13.3871 102.506 14.5811 105.308C15.7751 108.111 18.0282 109.835 19.6135 109.159Z" fill="#7662BD"/>
<path id="Vector_19" d="M129.609 121.066L92.8466 141.195L86.0713 137.939V145.819L91.8836 149.175C92.9097 149.768 94.174 149.768 95.2001 149.175L130.721 128.667C131.183 128.401 131.414 127.933 131.414 127.466V119.585L129.609 121.066Z" fill="url(#paint8_linear_3_425)"/>
<path id="Vector_20" d="M87.6431 137.031L93.8785 140.631L129.709 119.944V117.8L130.72 118.384C131.645 118.918 131.645 120.253 130.72 120.787L95.1996 141.295C94.1736 141.887 92.9092 141.887 91.8832 141.295L86.0706 137.939L87.6431 137.031Z" fill="#A996EB"/>
<path id="Vector_21" d="M105.629 119.197L120.655 110.522V113.099C120.655 114.736 119.781 116.249 118.363 117.067L107.886 123.116C106.883 123.695 105.629 122.971 105.629 121.813V119.197Z" fill="url(#paint9_linear_3_425)"/>
<path id="Vector_22" d="M65.125 78.8539C64.8097 77.3141 63.8503 75.9831 62.4889 75.1975L48.7256 67.239V87.2556L69.2753 99.1201L65.125 78.8539Z" fill="url(#paint10_linear_3_425)"/>
</g>
<defs>
<linearGradient id="paint0_linear_3_425" x1="25.6064" y1="97.6189" x2="20.9498" y2="89.5531" gradientUnits="userSpaceOnUse">
<stop stop-color="#43386B"/>
<stop offset="1" stop-color="#7662BD"/>
</linearGradient>
<linearGradient id="paint1_linear_3_425" x1="81.4695" y1="129.871" x2="76.8129" y2="121.806" gradientUnits="userSpaceOnUse">
<stop stop-color="#43386B"/>
<stop offset="1" stop-color="#7662BD"/>
</linearGradient>
<linearGradient id="paint2_linear_3_425" x1="51.659" y1="62.5885" x2="40.28" y2="62.5885" gradientUnits="userSpaceOnUse">
<stop stop-color="#DEA861"/>
<stop offset="1" stop-color="#CC8241"/>
</linearGradient>
<linearGradient id="paint3_linear_3_425" x1="65.0237" y1="11.9699" x2="22.4092" y2="36.5732" gradientUnits="userSpaceOnUse">
<stop stop-color="#DEA861"/>
<stop offset="1" stop-color="#EBCBA0"/>
</linearGradient>
<linearGradient id="paint4_linear_3_425" x1="113.767" y1="128.657" x2="72.2166" y2="48.2158" gradientUnits="userSpaceOnUse">
<stop stop-color="#E37A34"/>
<stop offset="1" stop-color="#FFC538"/>
</linearGradient>
<linearGradient id="paint5_linear_3_425" x1="93.8934" y1="96.798" x2="93.8934" y2="66.2416" gradientUnits="userSpaceOnUse">
<stop stop-color="#43386B"/>
<stop offset="1" stop-color="#7662BD"/>
</linearGradient>
<linearGradient id="paint6_linear_3_425" x1="73.2727" y1="157.473" x2="73.2727" y2="116.608" gradientUnits="userSpaceOnUse">
<stop stop-color="#43386B"/>
<stop offset="1" stop-color="#7662BD"/>
</linearGradient>
<linearGradient id="paint7_linear_3_425" x1="17.4097" y1="125.221" x2="17.4097" y2="84.3557" gradientUnits="userSpaceOnUse">
<stop stop-color="#43386B"/>
<stop offset="1" stop-color="#7662BD"/>
</linearGradient>
<linearGradient id="paint8_linear_3_425" x1="92.4286" y1="134.603" x2="97.8974" y2="134.603" gradientUnits="userSpaceOnUse">
<stop stop-color="#43386B"/>
<stop offset="1" stop-color="#7662BD"/>
</linearGradient>
<linearGradient id="paint9_linear_3_425" x1="113.142" y1="122.876" x2="113.142" y2="111.888" gradientUnits="userSpaceOnUse">
<stop stop-color="#43386B"/>
<stop offset="1" stop-color="#594A8E"/>
</linearGradient>
<linearGradient id="paint10_linear_3_425" x1="59.0006" y1="98.0128" x2="59.0006" y2="70.6441" gradientUnits="userSpaceOnUse">
<stop stop-color="#43386B"/>
<stop offset="1" stop-color="#7662BD"/>
</linearGradient>
</defs>
</svg>
