<svg width="136" height="135" viewBox="0 0 136 135" fill="none" xmlns="http://www.w3.org/2000/svg">
<g id="Group">
<g id="Group_2">
<g id="Group_3">
<path id="Vector" d="M110.314 99.3558V30.6253L6.65988e-08 35.356V104.087C-0.000263043 105.662 0.779068 107.236 2.33773 108.136L46.0379 133.367C49.146 135.161 52.975 135.161 56.0829 133.367L107.976 103.406C109.535 102.506 110.314 100.931 110.314 99.3558Z" fill="url(#paint0_linear_3_338)"/>
<path id="Vector_2" d="M2.33799 31.3066L54.2314 1.34581C57.3392 -0.448602 61.1685 -0.448602 64.2764 1.34581L107.976 26.5762C111.094 28.3758 111.094 32.875 107.976 34.6747L56.0831 64.6352C52.975 66.4296 49.146 66.4296 46.0381 64.6352L2.33799 39.4051C-0.77933 37.6055 -0.77933 33.1063 2.33799 31.3066Z" fill="url(#paint1_linear_3_338)"/>
<path id="Vector_3" d="M19.1643 21.592L74.9004 53.7713L89.6853 45.2352L33.949 13.0562L19.1643 21.592Z" fill="#DEA861"/>
<g id="Group_4">
<path id="Vector_4" d="M28.0005 16.4858L83.7366 48.6651L80.8406 50.3372L25.1045 18.1578L28.0005 16.4858Z" fill="#CC8241"/>
<path id="Vector_5" d="M74.9001 53.7713V65.9812L89.6851 57.4451V45.2352L74.9001 53.7713Z" fill="#CC8241"/>
</g>
</g>
</g>
<g id="Group_5">
<path id="Vector_6" d="M124.618 45.9394L116.336 41.1574C112.348 38.3939 106.87 38.5576 100.867 42.3845C89.9786 49.3266 81.186 66.2941 80.8356 81.0219C80.6832 87.4286 82.1053 92.4708 84.6115 95.8015L84.6078 95.8071L98.0129 112.948C98.2545 113.256 98.5294 113.487 98.8286 113.648L107.137 118.445L124.618 45.9394Z" fill="url(#paint2_linear_3_338)"/>
<path id="Vector_7" d="M131.051 62.4025C131.051 46.4955 121.111 39.4233 109.06 47.1059C98.1715 54.0478 89.3789 71.0154 89.0284 85.7433C88.8761 92.15 90.2982 97.1922 92.8043 100.523L92.8006 100.528L106.206 117.669C108.087 120.074 111.981 117.825 113.862 113.249L127.267 80.6289L127.264 80.6276C129.648 74.7066 131.051 68.3696 131.051 62.4025Z" fill="url(#paint3_linear_3_338)"/>
<path id="Vector_8" d="M125.379 58.5362L119.196 54.9768L119.196 54.9779C116.755 53.6844 113.62 53.8689 110.199 55.8435C102.417 60.3366 96.1084 72.391 96.1084 82.7675C96.1084 88.4723 98.0178 92.4771 101.028 94.1846L101.026 94.1894L106.675 97.4509L125.379 58.5362Z" fill="url(#paint4_linear_3_338)"/>
<path id="Vector_9" d="M127.292 82.8173C131.975 71.8257 130.731 60.7674 124.512 58.1178C118.294 55.4682 109.456 62.2307 104.773 73.2223C100.09 84.2138 101.334 95.2722 107.552 97.9218C113.771 100.571 122.609 93.8089 127.292 82.8173Z" fill="#F2EFFA"/>
</g>
</g>
<defs>
<linearGradient id="paint0_linear_3_338" x1="42.2433" y1="82.6689" x2="57.3971" y2="82.6689" gradientUnits="userSpaceOnUse">
<stop stop-color="#CC8241"/>
<stop offset="1" stop-color="#DEA861"/>
</linearGradient>
<linearGradient id="paint1_linear_3_338" x1="24.4458" y1="15.2593" x2="81.1956" y2="48.0238" gradientUnits="userSpaceOnUse">
<stop stop-color="#DEA861"/>
<stop offset="1" stop-color="#EBCBA0"/>
</linearGradient>
<linearGradient id="paint2_linear_3_338" x1="100.588" y1="82.3745" x2="115.228" y2="57.0165" gradientUnits="userSpaceOnUse">
<stop stop-color="#AB2C37"/>
<stop offset="1" stop-color="#FF7A85"/>
</linearGradient>
<linearGradient id="paint3_linear_3_338" x1="89.0175" y1="94.3623" x2="140.516" y2="94.3623" gradientUnits="userSpaceOnUse">
<stop stop-color="#FF4757"/>
<stop offset="1" stop-color="#FF7A85"/>
</linearGradient>
<linearGradient id="paint4_linear_3_338" x1="109.395" y1="71.955" x2="115.186" y2="61.924" gradientUnits="userSpaceOnUse">
<stop stop-color="#C5BAEB"/>
<stop offset="1" stop-color="#D7D1EB"/>
</linearGradient>
</defs>
</svg>
