<svg width="41" height="41" viewBox="0 0 41 41" fill="none" xmlns="http://www.w3.org/2000/svg">
<g id="xing 1" clip-path="url(#clip0_3_150)">
<path id="Vector" d="M40.0316 0.425376C39.8785 0.161759 39.5966 -0.000319262 39.2919 1.05078e-06H30.7502C30.4431 -0.000479418 30.1594 0.163841 30.007 0.430501L16.3404 24.3472C16.1937 24.6075 16.1937 24.9257 16.3404 25.186L24.8821 40.561C25.0323 40.831 25.3164 40.9988 25.6253 41.0001H34.167C34.6387 41.0001 35.0211 40.6177 35.0211 40.146C35.0211 40.0007 34.9841 39.8578 34.9135 39.7308L26.6058 24.7708L40.035 1.27781C40.1859 1.01339 40.1846 0.688593 40.0316 0.425376Z" fill="#78A1BB"/>
<path id="Vector_2" d="M17.8164 15.7901L12.6914 7.24844C12.5371 6.99083 12.2588 6.83323 11.9585 6.83331H3.41684C2.9451 6.83323 2.56257 7.21561 2.56249 7.68735C2.56249 7.84206 2.60445 7.99389 2.68397 8.12657L7.55272 16.2394L0.965409 27.7638C0.731421 28.1734 0.8738 28.6952 1.2834 28.9292C1.41289 29.0031 1.55943 29.0419 1.70853 29.0417H10.2502C10.5573 29.0422 10.841 28.8779 10.9934 28.6112L17.8267 16.6529C17.9794 16.3846 17.9754 16.0547 17.8164 15.7901Z" fill="#65B3E4"/>
</g>
<defs>
<clipPath id="clip0_3_150">
<rect width="41" height="41" fill="white"/>
</clipPath>
</defs>
</svg>
